PathFileType	4	(X/Y/Z)	D:\TRACE\spotREDO_2-26-24\spot_justBody_Motion_1_2-platform.trc
DataRate	CameraRate	NumFrames	NumMarkers	Units	OrigDataRate	OrigDataStartFrame	OrigNumFrames
100.00	100.00	      37	5	mm	100.00	5251	      7000
Frame#	Time	Left_Front			Right_Front			Left_Aft			Right_Aft			Post			
		X1	Y1	Z1	X2	Y2	Z2	X3	Y3	Z3	X4	Y4	Z4	X5	Y5	Z5	

5251	52.500	-683.14001	-10.67221	-577.31055	731.34644	-0.70732	-492.95544	-754.31000	11.65514	641.74445	815.78802	19.50437	644.75763	26.36009	611.80585	-990.72137	
5252	52.510	-681.93500	-10.25741	-577.20258	732.67731	-0.52527	-492.75467	-753.39819	11.43502	641.82123	816.91290	18.91802	644.79181	27.13461	612.63324	-990.32983	
5253	52.520	-681.24689	-9.84762	-577.30115	733.66809	-0.04607	-492.60385	-752.45844	10.93902	641.85431	817.82654	18.23154	644.64453	27.85643	613.27527	-989.84125	
5254	52.530	-680.29028	-9.38412	-576.91187	734.24420	0.54182	-492.62753	-751.67163	10.97424	641.92621	818.74487	18.25404	645.15570	29.03717	614.22803	-989.08545	
5255	52.540	-679.23553	-9.01490	-576.74976	735.55231	0.95534	-492.22412	-750.36316	10.12469	642.06818	819.86835	17.56132	645.11084	29.93043	614.74908	-988.58972	
5256	52.550	-678.17505	-8.73836	-576.75287	736.42328	1.10098	-492.01770	-749.46167	9.58779	642.20892	820.75073	17.15298	645.19098	30.51583	615.50519	-988.28723	
5257	52.560	-677.29144	-8.43942	-576.63562	737.28754	1.42530	-492.35367	-748.75012	9.30502	642.35229	821.70721	16.49587	645.20105	31.28802	616.01630	-988.00287	
5258	52.570	-676.37885	-7.78655	-576.56305	738.25543	1.76194	-492.04709	-747.75610	8.76760	642.48999	822.35059	16.55109	645.35699	32.11417	616.92212	-987.34448	
5259	52.580	-675.58417	-7.34493	-576.43933	739.15393	2.18337	-492.00943	-746.78699	8.35278	642.49518	823.56281	16.01189	645.44934	33.43794	617.61182	-987.08844	
5260	52.590	-674.54230	-6.78541	-576.55670	740.15515	2.58727	-491.86679	-746.07404	8.01172	642.55011	824.08789	15.75277	645.73602	34.57066	618.33069	-986.65460	
5261	52.600	-673.85950	-6.37438	-576.26422	740.84570	2.89400	-491.68243	-744.99927	7.63606	642.70099	825.38116	15.12324	645.94775	35.74454	618.88690	-985.61816	
5262	52.610	-672.85895	-5.90790	-576.13629	742.02332	2.98545	-491.51727	-743.93872	6.96680	642.95325	826.04370	14.52379	645.77686	36.15133	619.71600	-985.26953	
5263	52.620	-671.96661	-5.58220	-576.11047	742.82465	3.76314	-491.57785	-743.08691	6.53247	642.98462	826.97327	14.19394	645.99908	37.14179	620.38165	-984.50269	
5264	52.630	-671.03192	-5.25356	-575.97046	743.47083	4.17710	-491.54086	-742.20233	6.29797	643.02148	828.16559	13.75780	646.31958	38.15490	621.26514	-983.80957	
5265	52.640	-669.95160	-4.65006	-575.79889	744.67920	4.53027	-491.42560	-741.45367	5.85133	643.23187	828.92657	13.48936	646.52350	39.00116	622.02649	-983.29572	
5266	52.650	-669.20557	-4.20348	-575.63080	745.43909	4.99135	-491.22522	-740.49274	5.17097	643.34076	829.75952	12.98304	646.53821	40.24652	622.80231	-982.48541	
5267	52.660	-668.42828	-3.84380	-575.44836	746.22675	5.28416	-490.96661	-739.61963	4.89809	643.41943	830.95544	12.13923	646.25659	41.13007	623.37030	-981.94867	
5268	52.670	-667.72601	-3.46150	-575.50830	747.04340	5.68150	-491.02649	-738.95190	4.34880	643.64056	831.42004	12.07359	646.68030	41.67521	624.30298	-981.59387	
5269	52.680	-666.71381	-3.07506	-575.29358	747.91266	5.95631	-490.92599	-737.96436	3.72828	643.97949	832.34882	11.36121	646.34235	42.68155	624.87274	-981.01978	
5270	52.690	-665.84991	-2.38188	-575.29041	748.75861	6.45990	-490.65128	-736.87793	3.35048	643.95087	833.28003	11.08834	646.97577	43.83755	625.69659	-980.24445	
5271	52.700	-665.21344	-1.82713	-575.21149	749.66772	6.87411	-490.69522	-736.34094	3.36046	644.09418	833.87006	10.54502	647.07623	44.04862	626.52570	-980.08734	
5272	52.710	-664.34680	-1.45982	-575.05573	750.56812	7.10137	-490.48618	-735.47400	2.87648	644.14813	834.77557	10.27312	647.17993	45.01642	627.16718	-979.54578	
5273	52.720	-663.46564	-1.02696	-574.85938	751.38507	7.46895	-490.33945	-734.55048	2.31120	644.28137	835.58020	9.72396	647.29376	45.90286	627.85889	-978.95959	
5274	52.730	-662.57312	-0.75651	-574.74982	752.18109	8.07049	-490.23975	-733.80847	1.79695	644.30743	836.41260	9.23422	647.41284	46.52071	628.56427	-978.61896	
5275	52.740	-661.77069	-0.29997	-574.61096	752.64600	8.41600	-490.14600	-733.08478	1.08349	644.38702	837.09442	8.81571	647.49359	47.55058	629.29370	-977.86621	
5276	52.750	-661.01825	0.09005	-574.47070	753.63696	8.59662	-490.02887	-732.15472	0.57978	644.46497	838.33435	8.11417	647.37354	48.34233	630.01154	-977.15979	
5277	52.760	-660.29346	0.48115	-574.40100	754.40295	8.98945	-489.82397	-731.49084	0.39136	644.52765	838.87585	8.04982	647.68311	49.02353	630.98383	-976.47803	
5278	52.770	-659.28766	0.84151	-574.36353	755.30505	9.44740	-489.66754	-730.89764	-0.14249	644.69037	839.56543	7.59167	647.75049	49.54436	631.43750	-975.83490	
5279	52.780	-658.82080	1.20510	-574.34229	755.77429	9.72145	-489.70572	-729.80225	-0.31984	644.93158	840.38849	7.16255	648.02338	50.23273	632.32178	-975.14056	
5280	52.790	-657.92596	1.97914	-574.15582	756.74225	10.09434	-489.79205	-729.15735	-1.06423	645.03821	841.06201	6.40513	648.10602	51.03381	633.04022	-974.75061	
5281	52.800	-657.47559	2.48448	-574.08966	757.47998	10.63299	-489.35764	-728.46179	-1.40865	645.25354	841.56738	5.99791	648.26721	51.71217	633.97540	-974.01068	
5282	52.810	-656.90424	2.91498	-573.83276	757.94409	11.17534	-489.18262	-727.87421	-1.85519	645.30255	842.16748	5.34494	648.23859	52.26085	634.57001	-973.35461	
5283	52.820	-656.20361	3.23347	-573.70258	758.69482	11.46567	-489.04962	-727.25745	-2.34840	645.41125	842.95508	5.07919	648.54761	53.01112	635.54791	-972.88696	
5284	52.830	-655.28516	3.78212	-573.42456	759.15320	11.75377	-489.13098	-726.42291	-2.94488	645.58850	843.58472	4.30160	648.34436	53.59341	636.08429	-972.36298	
5285	52.840	-654.83514	4.13367	-573.46509	760.00000	12.17394	-488.80191	-725.85614	-3.47578	645.70886	844.18115	4.24880	648.55164	54.41755	636.90582	-971.77911	
5286	52.850	-654.03705	4.50899	-573.29303	760.39093	12.76532	-489.00433	-725.35266	-3.58897	645.74237	844.94824	3.61958	648.40417	55.20963	637.46075	-971.18726	
5287	52.860	-653.49585	4.98765	-573.23639	761.24017	13.16901	-488.87808	-724.66974	-3.95046	645.86707	845.57526	3.43775	648.90802	55.68913	638.06775	-970.72974	
